<?xml version="1.0" encoding="UTF-8" standalone="no"?>
<!-- Created with Inkscape (http://www.inkscape.org/) -->

<svg
   xmlns:dc="http://purl.org/dc/elements/1.1/"
   xmlns:cc="http://creativecommons.org/ns#"
   xmlns:rdf="http://www.w3.org/1999/02/22-rdf-syntax-ns#"
   xmlns:svg="http://www.w3.org/2000/svg"
   xmlns="http://www.w3.org/2000/svg"
   xmlns:sodipodi="http://sodipodi.sourceforge.net/DTD/sodipodi-0.dtd"
   xmlns:inkscape="http://www.inkscape.org/namespaces/inkscape"
   width="1000"
   height="1000"
   viewBox="0 0 264.58333 264.58334"
   version="1.1"
   id="svg8"
   inkscape:version="0.92.3 (2405546, 2018-03-11)"
   sodipodi:docname="alloy_logo.svg">
  <defs
     id="defs2">
    <inkscape:path-effect
       effect="bspline"
       id="path-effect4834"
       is_visible="true"
       weight="33.333333"
       steps="2"
       helper_size="0"
       apply_no_weight="true"
       apply_with_weight="true"
       only_selected="false" />
    <inkscape:path-effect
       effect="bspline"
       id="path-effect4764"
       is_visible="true"
       weight="33.333333"
       steps="2"
       helper_size="0"
       apply_no_weight="true"
       apply_with_weight="true"
       only_selected="false" />
  </defs>
  <sodipodi:namedview
     id="base"
     pagecolor="#ffffff"
     bordercolor="#666666"
     borderopacity="1.0"
     inkscape:pageopacity="0.0"
     inkscape:pageshadow="2"
     inkscape:zoom="0.98994949"
     inkscape:cx="568.83254"
     inkscape:cy="456.00595"
     inkscape:document-units="mm"
     inkscape:current-layer="layer1"
     showgrid="true"
     inkscape:window-width="1853"
     inkscape:window-height="1025"
     inkscape:window-x="67"
     inkscape:window-y="27"
     inkscape:window-maximized="1"
     units="px"
     showguides="false">
    <inkscape:grid
       type="xygrid"
       id="grid1012" />
  </sodipodi:namedview>
  <metadata
     id="metadata5">
    <rdf:RDF>
      <cc:Work
         rdf:about="">
        <dc:format>image/svg+xml</dc:format>
        <dc:type
           rdf:resource="http://purl.org/dc/dcmitype/StillImage" />
        <dc:title />
      </cc:Work>
    </rdf:RDF>
  </metadata>
  <g
     inkscape:label="Layer 1"
     inkscape:groupmode="layer"
     id="layer1"
     transform="translate(0,-32.41665)">
    <path
       sodipodi:type="star"
       style="opacity:1;fill:#f0f0f0;fill-opacity:1;fill-rule:evenodd;stroke:none;stroke-width:10;stroke-linecap:square;stroke-linejoin:round;stroke-miterlimit:4;stroke-dasharray:none;stroke-opacity:1;paint-order:markers stroke fill"
       id="path1078"
       sodipodi:sides="3"
       sodipodi:cx="131.86084"
       sodipodi:cy="177.93749"
       sodipodi:r1="121.70833"
       sodipodi:r2="60.854164"
       sodipodi:arg1="-1.5707963"
       sodipodi:arg2="-0.52359878"
       inkscape:flatsided="true"
       inkscape:rounded="0"
       inkscape:randomized="0"
       d="m 131.86084,56.229156 105.4025,182.562494 -210.805006,0 z"
       inkscape:transform-center-x="1.6e-06"
       inkscape:transform-center-y="-30.427086" />
    <path
       d="m 132.27427,37.992706 c -6.05573,0 -9.24302,3.684361 -12.11222,8.803244 L 3.0771657,255.85933 c -2.0188324,2.20411 -2.0188324,6.60408 -2.0188324,8.8024 0,11.0032 8.0747856,15.40481 14.1309027,15.40481 H 249.35893 c 8.07478,0 14.13087,-4.39995 14.13087,-15.40481 0,-4.39997 0,-4.39997 -2.01882,-8.8024 L 145.87569,46.79595 c -3.52986,-5.118883 -7.54562,-8.803244 -13.60174,-8.803244 z m 0.0174,26.173944 80.43333,148.16667 c 0,0 -11.54259,-0.0126 -22.225,-0.007 -13.22917,0.007 -23.39136,-30.1555 -33.07292,-30.2362 -10.02831,-0.0836 -14.55208,8.59312 -25.13541,8.83483 -10.58334,0.2417 -14.55209,-9.01872 -25.13542,-9.05968 -10.644305,-0.0412 -17.197917,30.46805 -33.072917,30.50592 -9.827352,0.0234 -22.225,-0.0379 -22.225,-0.0379 z"
       sodipodi:nodetypes="cccssssccscccssssscc"
       inkscape:connector-curvature="0"
       id="path5571"
       style="fill:#c64545;fill-opacity:1;stroke-width:0.26458347" />
    <path
       style="fill:#c64545;fill-opacity:1;stroke:none;stroke-width:0.26458332px;stroke-linecap:butt;stroke-linejoin:miter;stroke-opacity:1"
       d="m 132.29167,98.562483 c -9.70139,18.520837 -19.40258,37.041287 -21.60753,48.859537 -2.20495,11.81826 2.9843,16.83454 10.17651,19.44167 7.19222,2.60713 15.84094,2.60713 22.89655,0.0493 7.0556,-2.55779 12.34727,-7.67307 10.14227,-19.49096 -2.20501,-11.81788 -11.90641,-30.33875 -21.6078,-48.859587 z"
       id="path4762"
       inkscape:connector-curvature="0"
       inkscape:path-effect="#path-effect4764"
       inkscape:original-d="m 132.29167,98.562483 c 0,0 -19.40248,37.041337 -29.10417,55.562497 5.29195,5.11503 10.4812,10.13131 15.875,15.34584 8.99037,-2.6e-4 17.63909,-2.6e-4 26.45833,0 5.29197,-5.11558 10.58364,-10.23086 15.875,-15.34584 -9.70105,-18.52096 -29.10416,-55.562497 -29.10416,-55.562497 z"
       sodipodi:nodetypes="cccccc" />
    <path
       style="fill:#f0f0f0;fill-opacity:1;stroke:none;stroke-width:0.26458332px;stroke-linecap:butt;stroke-linejoin:miter;stroke-opacity:1"
       d="m 37.041667,254.66665 c 1.763944,-5.29183 3.52787,-10.58361 7.937704,-13.22931 4.409834,-2.64569 11.465293,-2.64569 22.930644,-2.64569 11.465351,0 27.339376,0 38.805245,-6.17411 11.46586,-6.1741 19.51822,-20.26573 25.57647,-20.26561 6.05825,1.1e-4 13.74253,13.44759 24.87872,19.94365 11.1362,6.49607 24.1134,6.49607 35.90122,6.49607 11.78781,0 20.46244,0 25.69197,2.61477 5.22954,2.61477 7.01414,7.96856 8.77803,13.26023"
       id="path4832"
       inkscape:connector-curvature="0"
       inkscape:path-effect="#path-effect4834"
       inkscape:original-d="m 37.041667,254.66665 c 1.764103,-5.29178 3.528029,-10.58356 5.291666,-15.875 7.055872,-2.6e-4 14.111331,-2.6e-4 21.166667,0 15.875366,-2.6e-4 31.749391,-2.6e-4 47.625,0 7.05621,-12.34816 15.10857,-26.43979 21.16667,-37.04166 6.05863,10.60187 13.7429,24.04935 21.16666,37.04166 14.84832,-2.6e-4 27.82552,-2.6e-4 42.33334,0 9.06781,-2.6e-4 17.74244,-2.6e-4 26.45833,0 1.7435,5.22943 5.29167,15.875 5.29167,15.875"
       sodipodi:nodetypes="ccccccccc" />
  </g>
</svg>
