<?xml version="1.0" encoding="UTF-8" standalone="no"?>
<!-- Created with Inkscape (http://www.inkscape.org/) -->

<svg
   xmlns:dc="http://purl.org/dc/elements/1.1/"
   xmlns:cc="http://creativecommons.org/ns#"
   xmlns:rdf="http://www.w3.org/1999/02/22-rdf-syntax-ns#"
   xmlns:svg="http://www.w3.org/2000/svg"
   xmlns="http://www.w3.org/2000/svg"
   xmlns:sodipodi="http://sodipodi.sourceforge.net/DTD/sodipodi-0.dtd"
   xmlns:inkscape="http://www.inkscape.org/namespaces/inkscape"
   width="1000"
   height="1000"
   viewBox="0 0 264.58333 264.58334"
   version="1.1"
   id="svg8"
   inkscape:version="0.92.3 (2405546, 2018-03-11)"
   sodipodi:docname="alloy_logo.svg">
  <defs
     id="defs2">
    <inkscape:path-effect
       effect="bspline"
       id="path-effect4834"
       is_visible="true"
       weight="33.333333"
       steps="2"
       helper_size="0"
       apply_no_weight="true"
       apply_with_weight="true"
       only_selected="false" />
    <inkscape:path-effect
       effect="bspline"
       id="path-effect4764"
       is_visible="true"
       weight="33.333333"
       steps="2"
       helper_size="0"
       apply_no_weight="true"
       apply_with_weight="true"
       only_selected="false" />
  </defs>
  <sodipodi:namedview
     id="base"
     pagecolor="#ffffff"
     bordercolor="#666666"
     borderopacity="1.0"
     inkscape:pageopacity="0.0"
     inkscape:pageshadow="2"
     inkscape:zoom="0.7"
     inkscape:cx="496.96646"
     inkscape:cy="549.46424"
     inkscape:document-units="mm"
     inkscape:current-layer="layer1"
     showgrid="true"
     inkscape:window-width="1853"
     inkscape:window-height="1025"
     inkscape:window-x="67"
     inkscape:window-y="27"
     inkscape:window-maximized="1"
     units="px"
     showguides="false">
    <inkscape:grid
       type="xygrid"
       id="grid1012" />
  </sodipodi:namedview>
  <metadata
     id="metadata5">
    <rdf:RDF>
      <cc:Work
         rdf:about="">
        <dc:format>image/svg+xml</dc:format>
        <dc:type
           rdf:resource="http://purl.org/dc/dcmitype/StillImage" />
        <dc:title />
      </cc:Work>
    </rdf:RDF>
  </metadata>
  <g
     inkscape:label="Layer 1"
     inkscape:groupmode="layer"
     id="layer1"
     transform="translate(0,-32.41665)">
    <path
       sodipodi:type="star"
       style="opacity:1;fill:#f0f0f0;fill-opacity:1;fill-rule:evenodd;stroke:none;stroke-width:10;stroke-linecap:square;stroke-linejoin:round;stroke-miterlimit:4;stroke-dasharray:none;stroke-opacity:1;paint-order:markers stroke fill"
       id="path1078"
       sodipodi:sides="3"
       sodipodi:cx="131.86084"
       sodipodi:cy="177.93749"
       sodipodi:r1="121.70833"
       sodipodi:r2="60.854164"
       sodipodi:arg1="-1.5707963"
       sodipodi:arg2="-0.52359878"
       inkscape:flatsided="true"
       inkscape:rounded="0"
       inkscape:randomized="0"
       d="m 131.86084,56.229156 105.4025,182.562494 -210.805006,0 z"
       inkscape:transform-center-x="1.6e-06"
       inkscape:transform-center-y="-30.427086" />
    <path
       d="m 132.27427,37.992706 c -6.05573,0 -8.07486,4.399958 -12.11222,8.803244 L 3.0771657,255.85933 c -2.0188324,2.20411 -2.0188324,6.60408 -2.0188324,8.8024 0,11.0032 8.0747856,15.40481 14.1309027,15.40481 H 249.35893 c 8.07478,0 14.13087,-4.39995 14.13087,-15.40481 0,-4.39997 0,-4.39997 -2.01882,-8.8024 L 146.40486,46.79595 c -4.03767,-4.399958 -8.07479,-8.803244 -14.13091,-8.803244 z m 0.0174,26.173944 79.375,148.16667 c 0,0 -9.4494,-0.37797 -20.12537,-0.007 -12.50559,0.43446 -23.2663,-30.1555 -32.94786,-30.2362 -10.02831,-0.0836 -15.63281,8.30566 -25.5429,8.30566 -11.34221,0 -17.16304,-8.22496 -27.68767,-8.00134 -10.641983,0.22611 -19.411084,30.54364 -35.664061,29.97675 -9.821408,-0.34256 -16.782142,-0.0379 -16.782142,-0.0379 z"
       sodipodi:nodetypes="cccssssccscccssssscc"
       inkscape:connector-curvature="0"
       id="path5571"
       style="fill:#c64545;fill-opacity:1;stroke-width:0.26458347" />
    <path
       style="fill:#c64545;fill-opacity:1;stroke:none;stroke-width:0.26458332px;stroke-linecap:butt;stroke-linejoin:miter;stroke-opacity:1"
       d="m 132.29167,98.562483 c -10.93611,18.520837 -21.872,37.041287 -23.63596,48.859557 -1.76396,11.81828 5.50099,16.83455 11.07491,15.93537 5.57392,-0.89919 9.03345,-7.64528 13.44305,-7.64514 4.40961,1.4e-4 9.70127,6.87931 15.6105,7.76116 5.90922,0.88185 12.43562,-4.23344 9.78963,-16.05133 -2.64598,-11.81788 -14.46408,-30.33878 -26.28213,-48.859617 z"
       id="path4762"
       inkscape:connector-curvature="0"
       inkscape:path-effect="#path-effect4764"
       inkscape:original-d="m 132.29167,98.562483 c 0,0 -21.87192,37.041337 -32.808333,55.562497 7.408623,5.11503 14.673573,10.13131 22.224993,15.34584 3.59631,-7.01255 7.05584,-13.75864 10.58334,-20.6375 5.2919,6.87886 10.58357,13.75803 15.875,20.6375 6.52669,-5.11558 13.05309,-10.23086 19.57916,-15.34584 -11.8177,-18.52096 -35.45416,-55.562497 -35.45416,-55.562497 z"
       sodipodi:nodetypes="ccccccc" />
    <path
       style="fill:#f0f0f0;fill-opacity:1;stroke:none;stroke-width:0.26458332px;stroke-linecap:butt;stroke-linejoin:miter;stroke-opacity:1"
       d="m 37.041667,254.66665 c 1.763944,-5.29183 3.52787,-10.58361 7.937704,-13.22931 4.409834,-2.64569 11.465293,-2.64569 22.930644,-2.64569 11.465351,0 27.339376,0 38.805235,-7.0561 11.46585,-7.0561 19.51821,-23.16082 26.33377,-23.1607 6.81556,1.2e-4 16.4209,15.36867 27.5571,22.79274 11.13619,7.42406 22.49124,7.42406 34.27905,7.42406 11.78782,0 22.19737,0 28.29852,2.61477 6.10116,2.61476 7.88575,7.96856 9.64964,13.26023"
       id="path4832"
       inkscape:connector-curvature="0"
       inkscape:path-effect="#path-effect4834"
       inkscape:original-d="m 37.041667,254.66665 c 1.764104,-5.29178 3.528028,-10.58356 5.291666,-15.875 7.055872,-2.6e-4 14.111331,-2.6e-4 21.166667,0 15.875366,-2.6e-4 31.749391,-2.6e-4 47.625,0 7.05621,-14.11215 15.10857,-30.21687 21.16667,-42.33333 7.57322,12.11646 17.17856,27.48501 26.45833,42.33333 12.99231,-2.6e-4 24.34736,-2.6e-4 37.04167,0 10.88132,-2.6e-4 21.29087,-2.6e-4 31.75,0 1.74349,5.22943 5.29166,15.875 5.29166,15.875"
       sodipodi:nodetypes="ccccccccc" />
  </g>
</svg>
