<?xml version="1.0" encoding="UTF-8" standalone="no"?>
<!-- Created with Inkscape (http://www.inkscape.org/) -->

<svg
   xmlns:dc="http://purl.org/dc/elements/1.1/"
   xmlns:cc="http://creativecommons.org/ns#"
   xmlns:rdf="http://www.w3.org/1999/02/22-rdf-syntax-ns#"
   xmlns:svg="http://www.w3.org/2000/svg"
   xmlns="http://www.w3.org/2000/svg"
   xmlns:sodipodi="http://sodipodi.sourceforge.net/DTD/sodipodi-0.dtd"
   xmlns:inkscape="http://www.inkscape.org/namespaces/inkscape"
   width="1000"
   height="1000"
   viewBox="0 0 264.58333 264.58334"
   version="1.1"
   id="svg8"
   inkscape:version="0.92.3 (2405546, 2018-03-11)"
   sodipodi:docname="alloy_logo.svg">
  <defs
     id="defs2">
    <inkscape:path-effect
       effect="bspline"
       id="path-effect4764"
       is_visible="true"
       weight="33.333333"
       steps="2"
       helper_size="0"
       apply_no_weight="true"
       apply_with_weight="true"
       only_selected="false" />
  </defs>
  <sodipodi:namedview
     id="base"
     pagecolor="#ffffff"
     bordercolor="#666666"
     borderopacity="1.0"
     inkscape:pageopacity="0.0"
     inkscape:pageshadow="2"
     inkscape:zoom="0.7"
     inkscape:cx="496.96646"
     inkscape:cy="492.32138"
     inkscape:document-units="mm"
     inkscape:current-layer="layer1"
     showgrid="true"
     inkscape:window-width="1853"
     inkscape:window-height="1025"
     inkscape:window-x="67"
     inkscape:window-y="27"
     inkscape:window-maximized="1"
     units="px"
     showguides="false">
    <inkscape:grid
       type="xygrid"
       id="grid1012" />
  </sodipodi:namedview>
  <metadata
     id="metadata5">
    <rdf:RDF>
      <cc:Work
         rdf:about="">
        <dc:format>image/svg+xml</dc:format>
        <dc:type
           rdf:resource="http://purl.org/dc/dcmitype/StillImage" />
        <dc:title />
      </cc:Work>
    </rdf:RDF>
  </metadata>
  <g
     inkscape:label="Layer 1"
     inkscape:groupmode="layer"
     id="layer1"
     transform="translate(0,-32.41665)">
    <path
       sodipodi:type="star"
       style="opacity:1;fill:#f0f0f0;fill-opacity:1;fill-rule:evenodd;stroke:none;stroke-width:10;stroke-linecap:square;stroke-linejoin:round;stroke-miterlimit:4;stroke-dasharray:none;stroke-opacity:1;paint-order:markers stroke fill"
       id="path1078"
       sodipodi:sides="3"
       sodipodi:cx="131.86084"
       sodipodi:cy="177.93749"
       sodipodi:r1="121.70833"
       sodipodi:r2="60.854164"
       sodipodi:arg1="-1.5707963"
       sodipodi:arg2="-0.52359878"
       inkscape:flatsided="true"
       inkscape:rounded="0"
       inkscape:randomized="0"
       d="m 131.86084,56.229156 105.4025,182.562494 -210.805006,0 z"
       inkscape:transform-center-x="1.6e-06"
       inkscape:transform-center-y="-30.427086" />
    <path
       d="m 132.27427,37.992706 c -6.05573,0 -8.07486,4.399958 -12.11222,8.803244 L 3.0771657,255.85933 c -2.0188324,2.20411 -2.0188324,6.60408 -2.0188324,8.8024 0,11.0032 8.0747856,15.40481 14.1309027,15.40481 H 249.35893 c 8.07478,0 14.13087,-4.39995 14.13087,-15.40481 0,-4.39997 0,-4.39997 -2.01882,-8.8024 L 146.40486,46.79595 c -4.03767,-4.399958 -8.07479,-8.803244 -14.13091,-8.803244 z m 0.0174,26.173944 79.375,148.16667 c 0,0 -9.4494,-0.37797 -20.12537,-0.007 -12.50559,0.43446 -23.2663,-37.03467 -32.94786,-37.11537 -10.02831,-0.0836 -15.63281,15.18483 -25.5429,15.18483 -11.34221,0 -17.16304,-15.10413 -27.68767,-14.88051 -10.641983,0.22611 -19.411084,37.42281 -35.664061,36.85592 -9.821408,-0.34256 -16.782142,-0.0379 -16.782142,-0.0379 z"
       sodipodi:nodetypes="cccssssccscccssssscc"
       inkscape:connector-curvature="0"
       id="path5571"
       style="fill:#c64545;fill-opacity:1;stroke-width:0.26458347" />
    <path
       style="fill:#c64545;fill-opacity:1;stroke:none;stroke-width:0.26458332px;stroke-linecap:butt;stroke-linejoin:miter;stroke-opacity:1"
       d="m 132.29167,98.562483 c -10.58333,18.520837 -21.16646,37.041297 -22.93039,48.065817 -1.76393,11.02452 5.15508,14.48403 10.54919,13.58484 5.39411,-0.89919 8.85364,-6.08849 13.26324,-6.08834 4.40959,1.5e-4 9.70126,5.29182 15.43409,6.17368 5.73283,0.88186 11.90645,-2.64592 9.26046,-13.6701 -2.646,-11.02417 -14.11131,-29.54506 -25.57659,-48.065897 z"
       id="path4762"
       inkscape:connector-curvature="0"
       inkscape:path-effect="#path-effect4764"
       inkscape:original-d="m 132.29167,98.562483 c 0,0 -21.16637,37.041347 -31.75,55.562497 7.05584,3.52753 13.97485,6.98704 21.16666,10.58334 3.59631,-5.39433 7.05584,-10.58363 10.58334,-15.875 5.2919,5.29137 10.58356,10.58303 15.875,15.875 6.17391,-3.52807 12.34753,-7.05585 18.52083,-10.58334 -11.46493,-18.52096 -34.39583,-55.562497 -34.39583,-55.562497 z"
       sodipodi:nodetypes="ccccccc" />
  </g>
</svg>
